<svg width="70" height="70" viewBox="0 0 70 70" fill="none" xmlns="http://www.w3.org/2000/svg">
<rect width="70" height="70" rx="5" fill="#6D57BD"/>
<circle cx="58.7864" cy="22.4287" r="7.42871" fill="#3EF48D"/>
<path d="M4.45356 20.1267C3.16486 17.8946 4.77574 15.1045 7.35315 15.1045L13.2302 15.1045C14.4224 15.1045 15.5247 15.7384 16.1242 16.7689L34.5809 48.4921C35.8796 50.7242 34.2693 53.524 31.6869 53.524H25.6685C24.4724 53.524 23.367 52.8858 22.769 51.8499L4.45356 20.1267Z" fill="white"/>
<path d="M30.0888 33.3578C28.9073 31.3114 30.1603 28.718 32.4977 28.3717L37.9167 27.5689C39.2699 27.3684 40.609 28.0113 41.2987 29.1927L53.009 49.2493C54.2039 51.2959 52.9526 53.9021 50.6083 54.2494L45.069 55.0701C43.7099 55.2714 42.3658 54.622 41.6788 53.4322L30.0888 33.3578Z" fill="white"/>
<path d="M57.0078 34.9841C57.0078 37.0066 55.3682 38.6462 53.3457 38.6462C51.3232 38.6462 49.6837 37.0066 49.6837 34.9841C49.6837 32.9617 51.3232 31.3221 53.3457 31.3221C55.3682 31.3221 57.0078 32.9617 57.0078 34.9841Z" fill="white"/>
</svg>
