<svg width="193" height="30" viewBox="0 0 193 30" fill="none" xmlns="http://www.w3.org/2000/svg">
<path d="M173.954 29.68C171.767 29.68 169.86 29.2267 168.234 28.32C166.634 27.4133 165.394 26.1333 164.514 24.48C163.634 22.8 163.194 20.84 163.194 18.6V0H168.674V11.32H168.714C169.14 10.7067 169.66 10.1733 170.274 9.72C170.914 9.26667 171.62 8.92 172.394 8.68C173.194 8.44 174.02 8.32 174.874 8.32C176.874 8.32 178.607 8.76 180.074 9.64C181.54 10.52 182.674 11.7333 183.474 13.28C184.3 14.8 184.714 16.5733 184.714 18.6C184.714 20.2 184.474 21.68 183.994 23.04C183.514 24.3733 182.82 25.5467 181.914 26.56C181.007 27.5467 179.887 28.32 178.554 28.88C177.22 29.4133 175.687 29.68 173.954 29.68ZM173.954 25C175.047 25 175.98 24.7333 176.754 24.2C177.527 23.6667 178.114 22.9467 178.514 22.04C178.94 21.1333 179.154 20.12 179.154 19C179.154 17.88 178.94 16.8667 178.514 15.96C178.114 15.0533 177.527 14.3333 176.754 13.8C175.98 13.2667 175.047 13 173.954 13C172.887 13 171.954 13.2667 171.154 13.8C170.38 14.3333 169.78 15.0533 169.354 15.96C168.954 16.8667 168.754 17.88 168.754 19C168.754 20.12 168.954 21.1333 169.354 22.04C169.78 22.9467 170.38 23.6667 171.154 24.2C171.954 24.7333 172.887 25 173.954 25Z" fill="white"/>
<path d="M151.213 29.1999C148.893 29.1999 146.866 28.7599 145.133 27.8799C143.426 26.9733 142.093 25.7466 141.133 24.1999C140.2 22.6533 139.733 20.9199 139.733 18.9999C139.733 16.8399 140.173 14.9599 141.053 13.3599C141.933 11.7599 143.133 10.5199 144.653 9.63995C146.173 8.75995 147.893 8.31995 149.813 8.31995C152.106 8.31995 153.96 8.79995 155.373 9.75995C156.813 10.7199 157.866 12.0133 158.533 13.6399C159.2 15.2399 159.533 17.0266 159.533 18.9999C159.533 19.2666 159.52 19.5866 159.493 19.9599C159.466 20.3066 159.426 20.5733 159.373 20.7599H145.573C145.786 21.5866 146.146 22.2799 146.653 22.8399C147.186 23.3999 147.84 23.8266 148.613 24.1199C149.413 24.3866 150.306 24.5199 151.293 24.5199H156.973V29.1999H151.213ZM145.533 17.0799H154.053C154 16.5733 153.906 16.1066 153.773 15.6799C153.64 15.2266 153.453 14.8266 153.213 14.4799C152.973 14.1333 152.693 13.8399 152.373 13.5999C152.053 13.3599 151.68 13.1733 151.253 13.0399C150.826 12.9066 150.36 12.8399 149.853 12.8399C149.186 12.8399 148.586 12.9599 148.053 13.1999C147.546 13.4399 147.12 13.7599 146.773 14.1599C146.426 14.5599 146.146 15.0133 145.933 15.5199C145.746 16.0266 145.613 16.5466 145.533 17.0799Z" fill="white"/>
<path d="M108.531 29.68C106.371 29.68 104.464 29.24 102.811 28.36C101.157 27.4533 99.8507 26.1733 98.8907 24.52C97.9573 22.84 97.4907 20.8533 97.4907 18.56V1.19995H103.211V18.92C103.211 19.96 103.424 20.92 103.851 21.8C104.277 22.6533 104.891 23.3466 105.691 23.88C106.491 24.3866 107.437 24.64 108.531 24.64C109.624 24.64 110.571 24.3866 111.371 23.88C112.171 23.3466 112.784 22.6533 113.211 21.8C113.637 20.92 113.851 19.96 113.851 18.92V1.19995H119.571V18.92C119.571 19.96 119.784 20.92 120.211 21.8C120.637 22.6533 121.251 23.3466 122.051 23.88C122.851 24.3866 123.797 24.64 124.891 24.64C125.984 24.64 126.931 24.3866 127.731 23.88C128.531 23.3466 129.144 22.6533 129.571 21.8C129.997 20.92 130.211 19.96 130.211 18.92V1.19995H135.931V18.56C135.931 20.8533 135.451 22.84 134.491 24.52C133.557 26.1733 132.264 27.4533 130.611 28.36C128.957 29.24 127.051 29.68 124.891 29.68C123.771 29.68 122.704 29.5333 121.691 29.24C120.677 28.9733 119.757 28.56 118.931 28C118.104 27.44 117.357 26.7733 116.691 26C116.051 26.7733 115.304 27.44 114.451 28C113.624 28.5333 112.704 28.9466 111.691 29.24C110.704 29.5333 109.651 29.68 108.531 29.68Z" fill="white"/>
<path d="M82.686 29.6799C80.5793 29.6799 78.6993 29.2133 77.046 28.2799C75.3926 27.3199 74.086 26.0399 73.126 24.4399C72.166 22.8133 71.686 20.9999 71.686 18.9999C71.686 16.9999 72.166 15.1999 73.126 13.5999C74.086 11.9733 75.3926 10.6933 77.046 9.75995C78.6993 8.79995 80.5793 8.31995 82.686 8.31995C84.7926 8.31995 86.6726 8.79995 88.326 9.75995C89.9793 10.6933 91.286 11.9733 92.246 13.5999C93.206 15.1999 93.686 16.9999 93.686 18.9999C93.686 20.9999 93.206 22.8133 92.246 24.4399C91.286 26.0399 89.9793 27.3199 88.326 28.2799C86.6726 29.2133 84.7926 29.6799 82.686 29.6799ZM82.686 24.9999C83.806 24.9999 84.766 24.7333 85.566 24.1999C86.3926 23.6666 87.0193 22.9466 87.446 22.0399C87.8993 21.1333 88.126 20.1199 88.126 18.9999C88.126 17.8799 87.8993 16.8666 87.446 15.9599C87.0193 15.0533 86.3926 14.3333 85.566 13.7999C84.766 13.2666 83.806 12.9999 82.686 12.9999C81.566 12.9999 80.5926 13.2666 79.766 13.7999C78.966 14.3333 78.3393 15.0533 77.886 15.9599C77.4593 16.8666 77.246 17.8799 77.246 18.9999C77.246 20.1199 77.4593 21.1333 77.886 22.0399C78.3393 22.9466 78.966 23.6666 79.766 24.1999C80.5926 24.7333 81.566 24.9999 82.686 24.9999Z" fill="white"/>
<path d="M62.2219 29.2V0H67.7019V29.2H62.2219Z" fill="white"/>
<path d="M51.5578 29.2V0H57.0378V29.2H51.5578Z" fill="white"/>
<path d="M39.3769 29.1999C37.0569 29.1999 35.0302 28.7599 33.2969 27.8799C31.5902 26.9733 30.2569 25.7466 29.2969 24.1999C28.3636 22.6533 27.8969 20.9199 27.8969 18.9999C27.8969 16.8399 28.3369 14.9599 29.2169 13.3599C30.0969 11.7599 31.2969 10.5199 32.8169 9.63995C34.3369 8.75995 36.0569 8.31995 37.9769 8.31995C40.2702 8.31995 42.1236 8.79995 43.5369 9.75995C44.9769 10.7199 46.0302 12.0133 46.6969 13.6399C47.3636 15.2399 47.6969 17.0266 47.6969 18.9999C47.6969 19.2666 47.6836 19.5866 47.6569 19.9599C47.6302 20.3066 47.5902 20.5733 47.5369 20.7599H33.7369C33.9502 21.5866 34.3102 22.2799 34.8169 22.8399C35.3502 23.3999 36.0036 23.8266 36.7769 24.1199C37.5769 24.3866 38.4702 24.5199 39.4569 24.5199H45.1369V29.1999H39.3769ZM33.6969 17.0799H42.2169C42.1636 16.5733 42.0702 16.1066 41.9369 15.6799C41.8036 15.2266 41.6169 14.8266 41.3769 14.4799C41.1369 14.1333 40.8569 13.8399 40.5369 13.5999C40.2169 13.3599 39.8436 13.1733 39.4169 13.0399C38.9902 12.9066 38.5236 12.8399 38.0169 12.8399C37.3502 12.8399 36.7502 12.9599 36.2169 13.1999C35.7102 13.4399 35.2836 13.7599 34.9369 14.1599C34.5902 14.5599 34.3102 15.0133 34.0969 15.5199C33.9102 16.0266 33.7769 16.5466 33.6969 17.0799Z" fill="white"/>
<path d="M0 29.2V1.19995H5.72V12.44H17.96V1.19995H23.68V29.2H17.96V17.48H5.72V29.2H0Z" fill="white"/>
<path d="M192.2 26.6511C192.2 28.308 190.857 29.6511 189.2 29.6511C187.543 29.6511 186.2 28.308 186.2 26.6511C186.2 24.9943 187.543 23.6511 189.2 23.6511C190.857 23.6511 192.2 24.9943 192.2 26.6511Z" fill="#3EF48D"/>
</svg>
