<svg width="63" height="41" viewBox="0 0 63 41" fill="none" xmlns="http://www.w3.org/2000/svg">
<circle cx="54.7864" cy="7.42871" r="7.42871" fill="#3EF48D"/>
<path d="M0.453562 5.12672C-0.835142 2.89462 0.775739 0.104493 3.35315 0.104493L9.23023 0.104492C10.4224 0.104492 11.5247 0.738434 12.1242 1.76891L30.5809 33.4921C31.8796 35.7242 30.2693 38.524 27.6869 38.524H21.6685C20.4724 38.524 19.367 37.8858 18.769 36.8499L0.453562 5.12672Z" fill="#6D57BD"/>
<path d="M26.0888 18.3578C24.9073 16.3114 26.1603 13.718 28.4977 13.3717L33.9167 12.5689C35.2699 12.3684 36.609 13.0113 37.2987 14.1927L49.009 34.2493C50.2039 36.2959 48.9526 38.9021 46.6083 39.2494L41.069 40.0701C39.7099 40.2714 38.3658 39.622 37.6788 38.4322L26.0888 18.3578Z" fill="#6D57BD"/>
<path d="M53.0078 19.9841C53.0078 22.0066 51.3682 23.6462 49.3457 23.6462C47.3232 23.6462 45.6837 22.0066 45.6837 19.9841C45.6837 17.9617 47.3232 16.3221 49.3457 16.3221C51.3682 16.3221 53.0078 17.9617 53.0078 19.9841Z" fill="#6D57BD"/>
</svg>
